<svg width="45" height="45" viewBox="0 0 45 45" fill="none" xmlns="http://www.w3.org/2000/svg">
<g clip-path="url(#clip0_6_42)">
<path fill-rule="evenodd" clip-rule="evenodd" d="M40.8973 9.62941C42.2687 9.62941 43.168 10.1549 44.0674 11.3058C44.9667 12.4568 45.124 14.1081 44.9217 15.6069L42.7858 32.0205C42.3812 35.1757 39.953 37.5 37.0978 37.5H12.5694C9.57919 37.5 7.10613 34.9504 6.85883 31.6478L4.79043 4.37254L1.39558 3.722C0.496282 3.54687 -0.133226 2.57105 0.024151 1.57021C0.181528 0.546861 1.05835 -0.131202 1.98013 0.0214245L7.3422 0.919672C8.10659 1.0723 8.66866 1.77038 8.73612 2.62109L9.16328 8.22576C9.23071 9.02892 9.81526 9.62941 10.5347 9.62941H40.8973ZM27.2729 22.6377H33.5005C34.4448 22.6377 35.1868 21.787 35.1868 20.7612C35.1868 19.7103 34.4448 18.8846 33.5005 18.8846H27.2729C26.3286 18.8846 25.5868 19.7103 25.5868 20.7612C25.5868 21.787 26.3286 22.6377 27.2729 22.6377Z" fill="white"/>
<path d="M12.2092 38.0428C10.3207 38.0428 8.79187 39.604 8.79187 41.5327C8.79187 43.4387 10.3207 45 12.2092 45C14.0753 45 15.6041 43.4387 15.6041 41.5327C15.6041 39.604 14.0753 38.0428 12.2092 38.0428Z" fill="white"/>
<path d="M37.502 38.0428C35.6133 38.0428 34.0845 39.604 34.0845 41.5327C34.0845 43.4387 35.6133 45 37.502 45C39.3679 45 40.8968 43.4387 40.8968 41.5327C40.8968 39.604 39.3679 38.0428 37.502 38.0428Z" fill="white"/>
</g>
<defs>
<clipPath id="clip0_6_42">
<rect width="45" height="45" fill="white"/>
</clipPath>
</defs>
</svg>
