<svg width="50" height="50" viewBox="0 0 50 50" fill="none" xmlns="http://www.w3.org/2000/svg">
<path d="M46.8875 35.9999C46.4302 38.3333 44.4875 40.1114 42.0875 40.4447C38.3157 40.9999 32.0292 41.6666 24.9427 41.6666C17.9709 41.6666 11.6844 40.9999 7.79796 40.4447C5.39796 40.1114 3.45421 38.3333 2.99796 35.9999C2.54067 33.4447 2.08337 29.6666 2.08337 24.9999C2.08337 20.3333 2.54067 16.5551 2.99796 13.9999C3.45525 11.6666 5.39796 9.88846 7.79796 9.55513C11.5698 8.99992 17.8563 8.33325 24.9427 8.33325C32.0292 8.33325 38.2011 8.99992 42.0875 9.55513C44.4875 9.88846 46.4313 11.6666 46.8875 13.9999C47.3448 16.5551 47.9167 20.3333 47.9167 24.9999C47.8021 29.6666 47.3448 33.4447 46.8875 35.9999Z" fill="url(#paint0_linear_49_30)"/>
<path opacity="0.05" d="M33.7 23.3749L21.7875 15.4332C21.1865 15.0322 20.4187 14.9947 19.7823 15.3364C19.1458 15.677 18.75 16.3364 18.75 17.0582V32.9416C18.75 33.6634 19.1458 34.3239 19.7823 34.6645C20.0719 34.8197 20.3875 34.8957 20.7031 34.8957C21.0823 34.8957 21.4594 34.7853 21.7865 34.5676L33.699 26.6259C34.2438 26.2624 34.5688 25.6551 34.5688 25.0009C34.5698 24.3457 34.2438 23.7384 33.7 23.3749Z" fill="black"/>
<path opacity="0.07" d="M21.5427 15.8718L32.7823 23.3655C33.5 23.8811 33.9834 24.3426 33.9834 24.9416C33.9834 25.5405 33.75 25.9582 33.2386 26.3311C32.8521 26.6124 21.7334 34.002 21.7334 34.002C20.7948 34.6311 19.2709 34.4978 19.2709 32.4405V17.4416C19.2709 15.353 20.9209 15.4572 21.5427 15.8718Z" fill="black"/>
<path d="M19.7916 32.8834V17.1177C19.7916 16.3438 20.6541 15.8813 21.2989 16.3115L33.1239 24.1948C33.7 24.5782 33.7 25.424 33.1239 25.8084L21.2989 33.6917C20.6541 34.1198 19.7916 33.6584 19.7916 32.8834Z" fill="white"/>
<defs>
<linearGradient id="paint0_linear_49_30" x1="10.225" y1="10.2822" x2="42.9646" y2="43.0218" gradientUnits="userSpaceOnUse">
<stop stop-color="#F44F5A"/>
<stop offset="0.443" stop-color="#EE3D4A"/>
<stop offset="1" stop-color="#E52030"/>
</linearGradient>
</defs>
</svg>
