<svg width="50" height="50" viewBox="0 0 50 50" fill="none" xmlns="http://www.w3.org/2000/svg">
<path d="M25 4.16675C13.5416 4.16675 4.16663 13.5417 4.16663 25.0001C4.16663 36.4584 13.5416 45.8334 25 45.8334C36.4583 45.8334 45.8333 36.4584 45.8333 25.0001C45.8333 13.5417 36.4583 4.16675 25 4.16675Z" fill="#29B6F6"/>
<path d="M35.4166 15.6249L31.5625 35.5208C31.5625 35.5208 31.3541 36.4583 30.3125 36.4583C29.6875 36.4583 29.375 36.1458 29.375 36.1458L20.8333 29.1666L16.6666 27.0833L11.3541 25.6249C11.3541 25.6249 10.4166 25.3124 10.4166 24.5833C10.4166 23.9583 11.3541 23.6458 11.3541 23.6458L33.5416 14.7916C33.5416 14.7916 34.2708 14.5833 34.6875 14.5833C35 14.5833 35.3125 14.6874 35.3125 15.1041C35.4166 15.4166 35.4166 15.6249 35.4166 15.6249Z" fill="white"/>
<path d="M23.9584 31.7709L20.4167 35.3126C20.4167 35.3126 20.3125 35.4167 20.1042 35.4167C20 35.4167 20 35.4167 19.8959 35.4167L20.9375 29.1667L23.9584 31.7709Z" fill="#B0BEC5"/>
<path d="M31.1458 18.9584C30.9375 18.7501 30.625 18.6459 30.4166 18.8543L16.6666 27.0834C16.6666 27.0834 18.8541 33.2293 19.1666 34.2709C19.4791 35.3126 19.7916 35.3126 19.7916 35.3126L20.8333 29.0626L31.0416 19.5834C31.25 19.4793 31.3541 19.1668 31.1458 18.9584Z" fill="#CFD8DC"/>
</svg>
