<svg width="50" height="50" viewBox="0 0 50 50" fill="none" xmlns="http://www.w3.org/2000/svg">
<path d="M43.75 38.5417C43.75 41.4187 41.4187 43.75 38.5417 43.75H11.4583C8.58229 43.75 6.25 41.4187 6.25 38.5417V11.4583C6.25 8.58125 8.58229 6.25 11.4583 6.25H38.5417C41.4187 6.25 43.75 8.58125 43.75 11.4583V38.5417Z" fill="#1976D2"/>
<path d="M37.4344 18.7926C37.4823 18.6353 37.5052 18.4895 37.499 18.3593C37.4833 17.9822 37.224 17.7083 36.6135 17.7083H33.8865C33.1979 17.7083 32.8802 18.1249 32.6948 18.5426C32.6948 18.5426 30.9948 22.0416 29.0354 24.3489C28.4 25.0166 28.0771 24.9999 27.7333 24.9999C27.549 24.9999 27.0833 24.777 27.0833 24.1655V18.7645C27.0833 18.0416 26.9031 17.7083 26.3208 17.7083H21.4781C21.0542 17.7083 20.8333 18.0416 20.8333 18.376C20.8333 19.0708 21.7687 19.2374 21.875 21.1843V24.9583C21.875 25.8749 21.7156 26.0416 21.3719 26.0416C20.4448 26.0416 18.6198 22.9166 17.3979 18.8208C17.1333 18.0145 16.8687 17.7083 16.1802 17.7083H13.4271C12.6323 17.7083 12.5 18.0978 12.5 18.5145C12.5 19.2655 13.125 23.326 16.5365 27.9947C19.0104 31.3801 22.2698 33.3333 25.1552 33.3333C26.9031 33.3333 27.0823 32.8885 27.0823 32.1937V29.0978C27.0833 28.2635 27.274 28.1249 27.8302 28.1249C28.2271 28.1249 29.0365 28.3853 30.599 30.2083C32.401 32.3103 32.7281 33.3333 33.7615 33.3333H36.4885C37.1219 33.3333 37.4854 33.0676 37.5 32.552C37.5031 32.4207 37.4844 32.2739 37.4417 32.1103C37.2396 31.5103 36.3125 30.0437 35.1562 28.6458C34.5156 27.8718 33.8833 27.1051 33.5927 26.6885C33.3979 26.4166 33.324 26.2249 33.3333 26.0416C33.3427 25.8489 33.4427 25.6655 33.5927 25.4093C33.5656 25.4093 37.0906 20.4603 37.4344 18.7926Z" fill="white"/>
</svg>
