<svg width="45" height="45" viewBox="0 0 45 45" fill="none" xmlns="http://www.w3.org/2000/svg">
<path fill-rule="evenodd" clip-rule="evenodd" d="M37.2657 40.5H7.73589C6.14651 40.5 4.97284 38.9317 5.57231 37.4894C8.35372 30.8204 14.8881 27 22.4997 27C30.1135 27 36.6479 30.8204 39.4293 37.4894C40.0288 38.9317 38.8551 40.5 37.2657 40.5ZM13.3125 13.5C13.3125 8.53646 17.4352 4.49996 22.4997 4.49996C27.5664 4.49996 31.6868 8.53646 31.6868 13.5C31.6868 18.4635 27.5664 22.5 22.4997 22.5C17.4352 22.5 13.3125 18.4635 13.3125 13.5ZM44.9003 39.6809C43.2305 32.1232 38.0076 26.5454 31.1333 24.0142C34.776 21.1409 36.9005 16.4946 36.1196 11.4073C35.2147 5.50559 30.2031 0.782948 24.1534 0.0944479C15.8022 -0.857302 8.71891 5.51021 8.71891 13.5C8.71891 17.7525 10.7309 21.5414 13.8683 24.0142C6.99173 26.5454 1.77112 32.1232 0.099054 39.6809C-0.507299 42.4282 1.75275 45 4.62144 45H40.3779C43.2489 45 45.5089 42.4282 44.9003 39.6809Z" fill="white"/>
</svg>
